<?xml version="1.0" encoding="UTF-8" standalone="no"?>
<svg
   viewBox="0 0 24 24"
   version="1.1"
   id="svg3573"
   sodipodi:docname="link-h.svg"
   inkscape:version="1.2.1 (9c6d41e410, 2022-07-14)"
   xmlns:inkscape="http://www.inkscape.org/namespaces/inkscape"
   xmlns:sodipodi="http://sodipodi.sourceforge.net/DTD/sodipodi-0.dtd"
   xmlns="http://www.w3.org/2000/svg"
   xmlns:svg="http://www.w3.org/2000/svg">
  <defs
     id="defs3577" />
  <sodipodi:namedview
     id="namedview3575"
     pagecolor="#ffffff"
     bordercolor="#000000"
     borderopacity="0.25"
     inkscape:showpageshadow="2"
     inkscape:pageopacity="0.0"
     inkscape:pagecheckerboard="0"
     inkscape:deskcolor="#d1d1d1"
     showgrid="false"
     inkscape:zoom="18.791667"
     inkscape:cx="11.946785"
     inkscape:cy="12.053215"
     inkscape:window-width="1366"
     inkscape:window-height="699"
     inkscape:window-x="0"
     inkscape:window-y="0"
     inkscape:window-maximized="1"
     inkscape:current-layer="svg3573" />
  <path
     fill="#0092E4"
     d="M8,12a1,1,0,0,0,1,1h6a1,1,0,0,0,0-2H9A1,1,0,0,0,8,12Zm2,3H7A3,3,0,0,1,7,9h3a1,1,0,0,0,0-2H7A5,5,0,0,0,7,17h3a1,1,0,0,0,0-2Zm7-8H14a1,1,0,0,0,0,2h3a3,3,0,0,1,0,6H14a1,1,0,0,0,0,2h3A5,5,0,0,0,17,7Z"
     id="path3571"
     style="fill:#000000;fill-opacity:0.89999998" />
</svg>
