<?xml version="1.0" encoding="UTF-8" standalone="no"?>
<svg
   viewBox="0 0 24 24"
   version="1.1"
   id="svg4428"
   sodipodi:docname="link-alt.svg"
   inkscape:version="1.2.1 (9c6d41e410, 2022-07-14)"
   xmlns:inkscape="http://www.inkscape.org/namespaces/inkscape"
   xmlns:sodipodi="http://sodipodi.sourceforge.net/DTD/sodipodi-0.dtd"
   xmlns="http://www.w3.org/2000/svg"
   xmlns:svg="http://www.w3.org/2000/svg">
  <defs
     id="defs4432" />
  <sodipodi:namedview
     id="namedview4430"
     pagecolor="#ffffff"
     bordercolor="#000000"
     borderopacity="0.25"
     inkscape:showpageshadow="2"
     inkscape:pageopacity="0.0"
     inkscape:pagecheckerboard="0"
     inkscape:deskcolor="#d1d1d1"
     showgrid="false"
     inkscape:zoom="18.791667"
     inkscape:cx="11.946785"
     inkscape:cy="12.053215"
     inkscape:window-width="1366"
     inkscape:window-height="699"
     inkscape:window-x="0"
     inkscape:window-y="0"
     inkscape:window-maximized="1"
     inkscape:current-layer="svg4428" />
  <path
     fill="#0092E4"
     d="M12.11,15.39,8.23,19.27a2.52,2.52,0,0,1-3.5,0,2.47,2.47,0,0,1,0-3.5l3.88-3.88a1,1,0,1,0-1.42-1.42L3.31,14.36a4.48,4.48,0,0,0,6.33,6.33l3.89-3.88a1,1,0,0,0-1.42-1.42ZM20.69,3.31a4.49,4.49,0,0,0-6.33,0L10.47,7.19a1,1,0,1,0,1.42,1.42l3.88-3.88a2.52,2.52,0,0,1,3.5,0,2.47,2.47,0,0,1,0,3.5l-3.88,3.88a1,1,0,0,0,0,1.42,1,1,0,0,0,1.42,0l3.88-3.89A4.49,4.49,0,0,0,20.69,3.31ZM8.83,15.17a1,1,0,0,0,.71.29,1,1,0,0,0,.71-.29l4.92-4.92a1,1,0,1,0-1.42-1.42L8.83,13.75A1,1,0,0,0,8.83,15.17Z"
     id="path4426"
     style="fill:#000000;fill-opacity:0.89999998" />
</svg>
