<?xml version="1.0" encoding="UTF-8" standalone="no"?>
<!-- Generator: Adobe Illustrator 19.0.0, SVG Export Plug-In . SVG Version: 6.00 Build 0)  -->

<svg
   version="1.1"
   id="Capa_1"
   x="0px"
   y="0px"
   viewBox="0 0 49.739 49.739"
   style="enable-background:new 0 0 49.739 49.739;"
   xml:space="preserve"
   sodipodi:docname="moon.svg"
   inkscape:export-filename="moon.png"
   inkscape:export-xdpi="123.5248"
   inkscape:export-ydpi="123.5248"
   inkscape:version="1.2.1 (9c6d41e410, 2022-07-14)"
   xmlns:inkscape="http://www.inkscape.org/namespaces/inkscape"
   xmlns:sodipodi="http://sodipodi.sourceforge.net/DTD/sodipodi-0.dtd"
   xmlns="http://www.w3.org/2000/svg"
   xmlns:svg="http://www.w3.org/2000/svg"><defs
   id="defs1043" /><sodipodi:namedview
   id="namedview1041"
   pagecolor="#ffffff"
   bordercolor="#000000"
   borderopacity="0.25"
   inkscape:showpageshadow="2"
   inkscape:pageopacity="0.0"
   inkscape:pagecheckerboard="0"
   inkscape:deskcolor="#d1d1d1"
   showgrid="false"
   inkscape:zoom="5.5832399"
   inkscape:cx="21.940666"
   inkscape:cy="25.522815"
   inkscape:window-width="1366"
   inkscape:window-height="699"
   inkscape:window-x="0"
   inkscape:window-y="0"
   inkscape:window-maximized="1"
   inkscape:current-layer="Capa_1" />
<path
   d="m 24.964684,33.053315 c -3.063451,0 -6.017027,-1.689857 -7.479456,-4.610038 -2.018811,-4.033282 -0.503617,-8.88945 3.450181,-11.05621 l 0.6883,-0.377044 -0.205387,0.75743 c -0.493934,1.823109 -0.300234,3.757094 0.545362,5.445616 0.918401,1.834463 2.496714,3.201711 4.44339,3.849268 1.947343,0.647556 4.029274,0.498273 5.864073,-0.420127 v 0 c 0.08349,-0.04175 0.16431,-0.08616 0.245128,-0.130579 l 0.6883,-0.37738 -0.195368,0.752087 c -0.622176,2.295333 -2.196482,4.22097 -4.319156,5.283975 -1.196926,0.599132 -2.470665,0.882668 -3.725367,0.883002 z M 20.601112,18.374599 c -3.143602,2.146719 -4.260043,6.290878 -2.518088,9.769447 1.896247,3.787149 6.519642,5.325053 10.307462,3.429141 1.72125,-0.862296 3.051093,-2.341756 3.734051,-4.126793 -1.880886,0.810531 -3.96816,0.902371 -5.928528,0.249806 -2.11633,-0.703996 -3.831567,-2.189801 -4.830121,-4.183901 -0.799175,-1.596012 -1.062672,-3.393071 -0.764776,-5.1377 z"
   id="path1008"
   style="fill:#000000;fill-opacity:1;stroke-width:1;stroke:#000000;stroke-opacity:1;stroke-dasharray:none" />
<g
   id="g1010">
</g>
<g
   id="g1012">
</g>
<g
   id="g1014">
</g>
<g
   id="g1016">
</g>
<g
   id="g1018">
</g>
<g
   id="g1020">
</g>
<g
   id="g1022">
</g>
<g
   id="g1024">
</g>
<g
   id="g1026">
</g>
<g
   id="g1028">
</g>
<g
   id="g1030">
</g>
<g
   id="g1032">
</g>
<g
   id="g1034">
</g>
<g
   id="g1036">
</g>
<g
   id="g1038">
</g>
</svg>
