<?xml version="1.0" encoding="UTF-8" standalone="no"?>
<svg
   viewBox="0 0 24 24"
   version="1.1"
   id="svg5283"
   sodipodi:docname="phone.svg"
   inkscape:version="1.2.1 (9c6d41e410, 2022-07-14)"
   xmlns:inkscape="http://www.inkscape.org/namespaces/inkscape"
   xmlns:sodipodi="http://sodipodi.sourceforge.net/DTD/sodipodi-0.dtd"
   xmlns="http://www.w3.org/2000/svg"
   xmlns:svg="http://www.w3.org/2000/svg">
  <defs
     id="defs5287" />
  <sodipodi:namedview
     id="namedview5285"
     pagecolor="#ffffff"
     bordercolor="#000000"
     borderopacity="0.25"
     inkscape:showpageshadow="2"
     inkscape:pageopacity="0.0"
     inkscape:pagecheckerboard="0"
     inkscape:deskcolor="#d1d1d1"
     showgrid="false"
     inkscape:zoom="18.791667"
     inkscape:cx="11.946785"
     inkscape:cy="12.053215"
     inkscape:window-width="1366"
     inkscape:window-height="699"
     inkscape:window-x="0"
     inkscape:window-y="0"
     inkscape:window-maximized="1"
     inkscape:current-layer="svg5283" />
  <path
     fill="#0092E4"
     d="M19.44,13c-.22,0-.45-.07-.67-.12a9.44,9.44,0,0,1-1.31-.39,2,2,0,0,0-2.48,1l-.22.45a12.18,12.18,0,0,1-2.66-2,12.18,12.18,0,0,1-2-2.66L10.52,9a2,2,0,0,0,1-2.48,10.33,10.33,0,0,1-.39-1.31c-.05-.22-.09-.45-.12-.68a3,3,0,0,0-3-2.49h-3a3,3,0,0,0-3,3.41A19,19,0,0,0,18.53,21.91l.38,0a3,3,0,0,0,2-.76,3,3,0,0,0,1-2.25v-3A3,3,0,0,0,19.44,13Zm.5,6a1,1,0,0,1-.34.75,1.05,1.05,0,0,1-.82.25A17,17,0,0,1,4.07,5.22a1.09,1.09,0,0,1,.25-.82,1,1,0,0,1,.75-.34h3a1,1,0,0,1,1,.79q.06.41.15.81a11.12,11.12,0,0,0,.46,1.55l-1.4.65a1,1,0,0,0-.49,1.33,14.49,14.49,0,0,0,7,7,1,1,0,0,0,.76,0,1,1,0,0,0,.57-.52l.62-1.4a13.69,13.69,0,0,0,1.58.46q.4.09.81.15a1,1,0,0,1,.79,1Z"
     id="path5281"
     style="fill:#000000;fill-opacity:0.89999998" />
</svg>
